<?xml version="1.0" encoding="utf-8"?>
<!-- Generator: Adobe Illustrator 15.1.0, SVG Export Plug-In . SVG Version: 6.00 Build 0)  -->
<!DOCTYPE svg PUBLIC "-//W3C//DTD SVG 1.1//EN" "http://www.w3.org/Graphics/SVG/1.1/DTD/svg11.dtd">
<svg version="1.1" id="Layer_1" xmlns="http://www.w3.org/2000/svg" xmlns:xlink="http://www.w3.org/1999/xlink" x="0px" y="0px"
	 width="320px" height="200px" viewBox="0 0 320 200" enable-background="new 0 0 320 200" xml:space="preserve">
<g id="Layer_2">
	<g>
		<g>
			<g>
				<path fill="#444444" d="M248.951,99.381c-6.834,3.782-9.62,5.592-9.65,12.873l-0.163,37.78
					c-0.017,3.775,3.659,8.541,7.434,8.541h57.26c2.585,0,6.003-2.318,6.012-4.903l0.157-42.55c0.01-2.425-2.479-5.439-4.903-5.375
					l-6.012,0.156v26.73c0,3.077-3.074,6.536-6.944,7.641l-36.54,10.43c-3.242,0.924-4.827,0.653-5.262-0.06
					c-0.701-1.151-0.442-2.89,4.774-4.882l26.1-9.967c4.868-1.856,11.704-4.44,11.704-10.28V82.177c0-2.751-2.833-5.57-7.75-2.848
					L248.951,99.381z M273.438,105.083c-1.799,2.588-1.704,5.527,0.212,6.563c1.917,1.036,4.929-0.225,6.727-2.814
					s1.702-5.528-0.214-6.565C278.246,101.229,275.235,102.491,273.438,105.083z"/>
				<path fill="#666666" d="M115.106,105.988h-6.45c-0.521,0-0.833,0.417-0.833,0.727v19.937H95.858v-19.937
					c0-0.521-0.206-0.727-0.725-0.727h-6.456c-0.516,0-0.829,0.312-0.829,0.727v50.723c0,0.522,0.209,0.835,0.726,0.835l6.559-0.001
					c0.416,0,0.725-0.313,0.725-0.83v-24.214h11.965v24.21c0,0.522,0.313,0.835,0.833,0.835l6.45-0.001
					c0.521,0,0.727-0.416,0.727-0.83v-50.727C115.833,106.3,115.521,105.988,115.106,105.988z M133.43,124.322v-17.607
					c0-0.521-0.206-0.727-0.725-0.727h-6.454c-0.516,0-0.829,0.312-0.829,0.728v50.722c0,0.522,0.209,0.835,0.725,0.835l6.558-0.001
					c0.156,0,0.294-0.044,0.41-0.125h3.37c8.819,0,16.302-6.091,16.302-17.916c0-7.098-3.484-12.64-10.08-14.907
					c-1.921-0.661-4.011-1.002-6.065-1.002L133.43,124.322L133.43,124.322z M206.682,106.358c-0.178,0.12-0.319,0.343-0.408,0.586
					l-11.676,31.889v-11.422v-0.764v-19.934c0-0.52-0.204-0.726-0.726-0.726h-6.453c-0.519,0-0.83,0.312-0.83,0.727v50.723
					c0,0.521,0.208,0.834,0.726,0.834l6.558-0.001c0.416,0,0.726-0.313,0.726-0.833v-0.198l11.965-32.678v32.876
					c0,0.521,0.313,0.834,0.835,0.834l6.449-0.001c0.52,0,0.725-0.416,0.725-0.833v-50.724c0-0.417-0.31-0.726-0.725-0.726h-6.449
					C207.064,105.988,206.816,106.156,206.682,106.358z M166.053,126.651v-14.339h17.766c0.257,0,0.412-0.247,0.412-0.658v-5.096
					c0-0.411-0.206-0.575-0.412-0.575h-25.111c-0.054,0-0.104,0.017-0.151,0.047c-0.324,0.101-0.514,0.361-0.514,0.685v50.723
					c0,0.521,0.209,0.834,0.726,0.834l6.559-0.001c0.417,0,0.725-0.313,0.725-0.833v-30.024v-0.762H166.053z M66.08,127.382
					c-2.396,0-6.139,0.417-6.139,0.417s0-1.565,0.208-3.236c0.933-8.872,3.119-13.356,6.761-13.356c3.332,0,5.41,4.589,5.931,12.629
					c0.103,1.669,0.103,3.547,0.103,3.547H66.08z M67.223,104.733c-11.234,0-16.231,14.194-16.231,29.64
					c0,15.763,7.075,25.15,17.479,25.15c5.098,0,9.574-1.979,11.86-3.442c0.416-0.21,0.519-0.522,0.416-0.938l-0.832-3.551
					c-0.103-0.415-0.313-0.623-0.833-0.623c-0.413,0-3.433,1.145-7.699,1.145c-8.011,0-11.755-6.99-11.755-16.173v-2.474
					c0,0,4.055,0.487,6.45,0.487h15.19v-4.385C81.269,113.396,75.544,104.736,67.223,104.733z M34.763,151.699H19.678
					c5.307-9.08,7.386-19.31,8.115-31.831c0.206-2.714,0.312-5.534,0.312-7.306l6.659-0.001V151.699L34.763,151.699z M46,151.699
					h-1.249c-1.561,0-1.978-0.626-1.978-1.879v-43.104c0-0.521-0.208-0.728-0.625-0.728H21.343c-0.522,0-0.834,0.314-0.834,0.729
					v3.756c0,12.627-0.727,28.909-7.387,41.227h-2.289c-0.624,0-0.833,0.314-0.833,0.834v15.236c0,0.525,0.417,0.729,0.728,0.729
					h4.997c1.142,0,1.558-0.833,1.558-1.564v-8.665h22.269v9.5c0,0.416,0.309,0.728,0.725,0.728h5.31
					c0.621,0,1.246-0.521,1.246-1.566V152.53C46.83,152.014,46.518,151.699,46,151.699z M133.43,130.307h0.615
					c4.965,0,9.779,2.975,9.779,10.409c0,7.745-4.513,10.904-9.101,10.904h-1.292v-21.313H133.43z"/>
			</g>
			<g>
				<path fill="#444444" d="M34.785,66.039h-2.482c-3.897,0-7.677-2.844-7.677-9.954c0-7.408,3.544-10.428,7.147-10.428h3.013
					L34.785,66.039L34.785,66.039z M38.684,41.864h-6.734c-6.614,0-12.226,5.036-12.226,14.813c0,5.865,2.718,10.19,7.562,12.323
					l-9.037,16.354c-0.295,0.534,0,0.948,0.472,0.948h4.194c0.355,0,0.592-0.119,0.709-0.414l8.21-16.059h2.955v16.059
					c0,0.176,0.177,0.414,0.412,0.414h3.664c0.354,0,0.473-0.178,0.473-0.473V42.457C39.333,42.041,39.097,41.864,38.684,41.864z"/>
				<path fill="#666666" d="M60.885,56.595h-3.662c-0.296,0-0.474,0.237-0.474,0.414v11.317h-6.793V57.008
					c0-0.296-0.116-0.414-0.412-0.414h-3.664c-0.294,0-0.471,0.176-0.471,0.414v28.798c0,0.294,0.118,0.474,0.411,0.474h3.724
					c0.237,0,0.412-0.178,0.412-0.473V72.06h6.793v13.747c0,0.294,0.178,0.474,0.474,0.474h3.662c0.295,0,0.413-0.237,0.413-0.473
					V57.009C61.298,56.772,61.122,56.595,60.885,56.595z M144.501,84.384l-0.474-2.015c-0.058-0.178-0.117-0.236-0.293-0.236
					c-0.295,0-1.892,0.651-4.194,0.651c-4.49,0-6.676-4.324-6.676-11.198c0-6.044,1.833-12.027,4.904-12.027
					c0.826,0,1.831,0.236,3.424,1.72c0.177,0.178,0.297,0.236,0.474,0.236s0.355-0.12,0.532-0.416l1.596-2.606
					c0.117-0.179,0.176-0.359,0.176-0.535c0-0.238-0.236-0.414-0.59-0.591c-2.423-1.246-4.075-1.481-5.495-1.481
					c-5.552,0-9.866,6.634-9.866,17.003c0,8.949,4.137,14.101,10.043,14.101c2.483,0,5.14-1.183,6.203-1.955
					C144.501,84.858,144.56,84.62,144.501,84.384z M118.83,69.985l7.087-12.976c0.119-0.177,0.059-0.413-0.178-0.413h-3.485
					c-1.004,0-1.359,0.354-1.71,1.125l-5.318,11.08c-0.292,0.651-0.589,1.066-0.884,1.246V57.009c0-0.237-0.118-0.413-0.354-0.413
					h-3.839c-0.176,0-0.355,0.176-0.355,0.414v28.854c0,0.177,0.119,0.414,0.355,0.414h3.839c0.236,0,0.354-0.177,0.354-0.414
					V70.993c0.177,0.119,0.295,0.297,0.412,0.534l6.734,13.864c0.355,0.711,0.886,0.889,1.655,0.889h3.78
					c0.237,0,0.295-0.237,0.176-0.414L118.83,69.985z M78.606,82.545h-8.564c3.013-5.154,4.194-10.959,4.606-18.069
					c0.118-1.541,0.176-3.143,0.176-4.148h3.78v22.217H78.606z M84.986,82.545h-0.709c-0.886,0-1.123-0.354-1.123-1.065V57.009
					c0-0.295-0.117-0.413-0.355-0.413H70.987c-0.296,0-0.473,0.178-0.473,0.414v2.132c0,7.169-0.414,16.413-4.194,23.405l-1.3-0.001
					c-0.354,0-0.474,0.18-0.474,0.475v8.651c0,0.297,0.238,0.414,0.415,0.414h2.836c0.648,0,0.885-0.474,0.885-0.888V86.28h12.642
					v5.393c0,0.236,0.175,0.414,0.412,0.414h3.014c0.352,0,0.705-0.295,0.705-0.888v-8.175
					C85.455,82.726,85.278,82.546,84.986,82.545z M96.385,68.742c-1.359,0-3.485,0.236-3.485,0.236s0-0.889,0.119-1.837
					c0.529-5.036,1.771-7.583,3.839-7.583c1.891,0,3.07,2.605,3.367,7.17c0.06,0.948,0.06,2.015,0.06,2.015L96.385,68.742
					L96.385,68.742z M97.034,55.885c-6.378,0-9.215,8.057-9.215,16.826c0,8.947,4.016,14.278,9.924,14.278
					c2.895,0,5.435-1.125,6.733-1.955c0.237-0.119,0.296-0.296,0.237-0.531l-0.473-2.015c-0.059-0.237-0.177-0.354-0.474-0.354
					c-0.234-0.001-1.949,0.65-4.37,0.65c-4.548,0-6.675-3.969-6.675-9.183v-1.402c0,0,2.303,0.275,3.663,0.275h8.625v-2.488
					C105.009,60.803,101.759,55.885,97.034,55.885z"/>
			</g>
		</g>
	</g>
</g>
</svg>
